<?xml version="1.0" standalone="no"?>
<svg xmlns:xlink="http://www.w3.org/1999/xlink" id="wave" style="transform:rotate(180deg); transition: 0.3s" viewBox="0 0 1440 430" version="1.1" xmlns="http://www.w3.org/2000/svg"><defs><linearGradient id="sw-gradient-0" x1="0" x2="0" y1="1" y2="0"><stop stop-color="rgba(0, 30.059, 104.775, 1)" offset="0%"/><stop stop-color="rgba(87.604, 115.205, 214.068, 1)" offset="100%"/></linearGradient></defs><path style="transform:translate(0, 0px); opacity:1" fill="url(#sw-gradient-0)" d="M0,0L24,50.2C48,100,96,201,144,200.7C192,201,240,100,288,86C336,72,384,143,432,200.7C480,258,528,301,576,322.5C624,344,672,344,720,301C768,258,816,172,864,143.3C912,115,960,143,1008,157.7C1056,172,1104,172,1152,143.3C1200,115,1248,57,1296,57.3C1344,57,1392,115,1440,164.8C1488,215,1536,258,1584,286.7C1632,315,1680,330,1728,329.7C1776,330,1824,315,1872,279.5C1920,244,1968,186,2016,172C2064,158,2112,186,2160,229.3C2208,272,2256,330,2304,344C2352,358,2400,330,2448,286.7C2496,244,2544,186,2592,186.3C2640,186,2688,244,2736,222.2C2784,201,2832,100,2880,71.7C2928,43,2976,86,3024,121.8C3072,158,3120,186,3168,186.3C3216,186,3264,158,3312,186.3C3360,215,3408,301,3432,344L3456,387L3456,430L3432,430C3408,430,3360,430,3312,430C3264,430,3216,430,3168,430C3120,430,3072,430,3024,430C2976,430,2928,430,2880,430C2832,430,2784,430,2736,430C2688,430,2640,430,2592,430C2544,430,2496,430,2448,430C2400,430,2352,430,2304,430C2256,430,2208,430,2160,430C2112,430,2064,430,2016,430C1968,430,1920,430,1872,430C1824,430,1776,430,1728,430C1680,430,1632,430,1584,430C1536,430,1488,430,1440,430C1392,430,1344,430,1296,430C1248,430,1200,430,1152,430C1104,430,1056,430,1008,430C960,430,912,430,864,430C816,430,768,430,720,430C672,430,624,430,576,430C528,430,480,430,432,430C384,430,336,430,288,430C240,430,192,430,144,430C96,430,48,430,24,430L0,430Z"/><defs><linearGradient id="sw-gradient-1" x1="0" x2="0" y1="1" y2="0"><stop stop-color="rgba(0.376, 17.701, 150.314, 1)" offset="0%"/><stop stop-color="rgba(67.876, 158.005, 220.899, 1)" offset="100%"/></linearGradient></defs><path style="transform:translate(0, 50px); opacity:0.9" fill="url(#sw-gradient-1)" d="M0,0L24,7.2C48,14,96,29,144,71.7C192,115,240,186,288,186.3C336,186,384,115,432,107.5C480,100,528,158,576,179.2C624,201,672,186,720,215C768,244,816,315,864,293.8C912,272,960,158,1008,107.5C1056,57,1104,72,1152,78.8C1200,86,1248,86,1296,129C1344,172,1392,258,1440,243.7C1488,229,1536,115,1584,100.3C1632,86,1680,172,1728,236.5C1776,301,1824,344,1872,308.2C1920,272,1968,158,2016,107.5C2064,57,2112,72,2160,93.2C2208,115,2256,143,2304,129C2352,115,2400,57,2448,28.7C2496,0,2544,0,2592,21.5C2640,43,2688,86,2736,143.3C2784,201,2832,272,2880,279.5C2928,287,2976,229,3024,172C3072,115,3120,57,3168,28.7C3216,0,3264,0,3312,64.5C3360,129,3408,258,3432,322.5L3456,387L3456,430L3432,430C3408,430,3360,430,3312,430C3264,430,3216,430,3168,430C3120,430,3072,430,3024,430C2976,430,2928,430,2880,430C2832,430,2784,430,2736,430C2688,430,2640,430,2592,430C2544,430,2496,430,2448,430C2400,430,2352,430,2304,430C2256,430,2208,430,2160,430C2112,430,2064,430,2016,430C1968,430,1920,430,1872,430C1824,430,1776,430,1728,430C1680,430,1632,430,1584,430C1536,430,1488,430,1440,430C1392,430,1344,430,1296,430C1248,430,1200,430,1152,430C1104,430,1056,430,1008,430C960,430,912,430,864,430C816,430,768,430,720,430C672,430,624,430,576,430C528,430,480,430,432,430C384,430,336,430,288,430C240,430,192,430,144,430C96,430,48,430,24,430L0,430Z"/></svg>